<svg width="749" height="297" viewBox="0 0 749 297" fill="none" xmlns="http://www.w3.org/2000/svg">
<rect x="120" y="25" width="517" height="286" rx="16" fill="#F2F3F6"/>
<rect x="136" y="74" width="485" height="32" rx="8" fill="white"/>
<path d="M596.333 94.6667C599.279 94.6667 601.667 92.2789 601.667 89.3333C601.667 86.3878 599.279 84 596.333 84C593.388 84 591 86.3878 591 89.3333C591 92.2789 593.388 94.6667 596.333 94.6667Z" stroke="#C4C6D3" stroke-width="1.33333" stroke-linecap="round" stroke-linejoin="round"/>
<path d="M602.998 95.9996L600.098 93.0996" stroke="#C4C6D3" stroke-width="1.33333" stroke-linecap="round" stroke-linejoin="round"/>
<path d="M120 41C120 32.1634 127.163 25 136 25H621C629.837 25 637 32.1634 637 41V62H120V41Z" fill="#7E82A0"/>
<rect x="136" y="39" width="54" height="10" rx="5" fill="white"/>
<rect x="196" y="39" width="24" height="10" rx="5" fill="white"/>
<rect x="489" y="39" width="132" height="10" rx="5" fill="white"/>
<circle cx="357" cy="44" r="5" fill="#F25858"/>
<circle cx="379" cy="44" r="5" fill="#FFE373"/>
<circle cx="401" cy="44" r="5" fill="#65D365"/>
<rect x="374" y="118" width="117.426" height="186" rx="8" fill="white"/>
<rect x="386" y="227" width="94" height="101" rx="8" fill="#F1EFFF"/>
<rect x="504" y="118" width="117.426" height="186" rx="8" fill="white"/>
<rect x="516" y="134" width="53" height="6" rx="3" fill="#D2CEFF"/>
<rect x="516" y="156" width="73" height="6" rx="3" fill="#D7D8E2"/>
<rect x="516" y="178" width="99" height="6" rx="3" fill="#D7D8E2"/>
<g clip-path="url(#clip0_0_1)">
<rect x="136" y="118" width="226" height="186" rx="8" fill="url(#paint0_linear_0_1)"/>
<path d="M132 249L190.272 216.021C191.094 215.555 192.13 215.729 192.756 216.437L212.859 239.192C213.542 239.965 214.701 240.092 215.535 239.485L264.925 203.546C265.711 202.974 266.796 203.05 267.494 203.728L290.947 226.483C291.746 227.257 293.022 227.231 293.789 226.426L343.246 174.443C344.005 173.645 345.267 173.611 346.068 174.366L367 194.111" stroke="#8C80FF" stroke-width="7"/>
</g>
<path fill-rule="evenodd" clip-rule="evenodd" d="M442 156C436.477 156 432 160.477 432 166C432 171.523 436.477 176 442 176L502.536 176L504.268 179.5C505.038 180.833 506.962 180.833 507.732 179.5L509.464 176H515C520.523 176 525 171.523 525 166C525 160.477 520.523 156 515 156H442Z" fill="#9F94FF"/>
<path fill-rule="evenodd" clip-rule="evenodd" d="M429 188C423.477 188 419 192.477 419 198C419 203.523 423.477 208 429 208L489.536 208L491.268 211.5C492.038 212.833 493.962 212.833 494.732 211.5L496.464 208H502C507.523 208 512 203.523 512 198C512 192.477 507.523 188 502 188H429Z" fill="#8C80FF"/>
<path fill-rule="evenodd" clip-rule="evenodd" d="M428 133C433.523 133 438 137.477 438 143C438 148.523 433.523 153 428 153L367.464 153L365.732 156.5C364.962 157.833 363.038 157.833 362.268 156.5L360.536 153H355C349.477 153 345 148.523 345 143C345 137.477 349.477 133 355 133H428Z" fill="#BDB6FF"/>
<rect x="516" y="200" width="91" height="105" rx="8" fill="#F1EFFF"/>
<rect x="99.9102" y="186.393" width="121.956" height="66.1508" rx="16" fill="#9F94FF"/>
<rect x="94.6055" y="193.18" width="120.188" height="64.4546" rx="12" fill="white"/>
<path fill-rule="evenodd" clip-rule="evenodd" d="M141.209 193.243C137.443 186.91 130.428 183 122.83 183H71.6276C59.9139 183 50.418 192.245 50.418 203.487V211.165V296.646C50.418 307.887 59.9138 317 71.6276 317H207.347C219.061 317 228.557 307.887 228.557 296.646V223.841C228.557 212.599 219.061 203.487 207.347 203.487H159.588C151.989 203.487 144.974 199.577 141.209 193.243Z" fill="#BDB6FF"/>
<rect width="10.8198" height="40.4277" transform="matrix(-0.849082 -0.528123 -0.5282 0.849207 54.1328 261.512)" fill="#6F60FF"/>
<rect width="14.4264" height="38.2987" rx="4" transform="matrix(-0.849082 -0.528123 -0.5282 0.849207 46.5469 277.129)" fill="#8C80FF"/>
<circle cx="32.4594" cy="32.4594" r="32.4594" transform="matrix(-0.973885 0.227041 0.226897 0.973919 82.543 200.742)" fill="#8C80FF"/>
<ellipse cx="25.2462" cy="25.2462" rx="25.2462" ry="25.2462" transform="matrix(-0.973885 0.227041 0.226897 0.973919 77.1641 209.406)" fill="white"/>
<g filter="url(#filter0_ii_0_1)">
<ellipse cx="120.694" cy="145.784" rx="21.4096" ry="21.5089" transform="rotate(-16.7247 120.694 145.784)" fill="#FFD45B"/>
</g>
<path d="M112.037 144.875C112.037 144.875 111.457 142.943 113.379 142.366C115.302 141.788 115.882 143.719 115.882 143.719" stroke="#353743" stroke-width="1.3443" stroke-linecap="round"/>
<path d="M123.569 141.41C123.569 141.41 122.988 139.479 124.911 138.901C126.833 138.323 127.413 140.254 127.413 140.254" stroke="#353743" stroke-width="1.3443" stroke-linecap="round"/>
<g filter="url(#filter1_ii_0_1)">
<path fill-rule="evenodd" clip-rule="evenodd" d="M135.864 140.793C135.694 141.086 135.602 141.429 135.613 141.795L135.731 145.556L135.79 147.436L135.966 153.078C135.999 154.117 136.863 154.934 137.898 154.904L143.518 154.741C144.553 154.711 145.364 153.846 145.332 152.807L145.097 145.285C145.064 144.245 144.2 143.428 143.165 143.458L141.027 143.52C140.656 143.531 140.346 143.239 140.334 142.868L140.296 141.659C140.264 140.62 139.4 139.803 138.364 139.833L137.428 139.86C136.756 139.879 136.179 140.251 135.864 140.793Z" fill="#FFA827"/>
</g>
<g filter="url(#filter2_f_0_1)">
<ellipse cx="113.778" cy="150.669" rx="3.34525" ry="2.68861" transform="rotate(-16.7247 113.778 150.669)" fill="#FF9797" fill-opacity="0.8"/>
</g>
<g filter="url(#filter3_f_0_1)">
<ellipse cx="128.517" cy="146.241" rx="3.34525" ry="2.68861" transform="rotate(-16.7247 128.517 146.241)" fill="#FF9797" fill-opacity="0.8"/>
</g>
<path d="M116.982 149.707C116.982 149.707 117.949 152.926 122.434 151.578C126.92 150.23 125.953 147.012 125.953 147.012" stroke="#F25858" stroke-width="1.3443" stroke-linecap="round"/>
<g filter="url(#filter4_d_0_1)">
<path fill-rule="evenodd" clip-rule="evenodd" d="M616.07 93.9797C608.884 93.7083 602.839 99.3137 602.567 106.5L596.594 264.795C596.323 271.981 601.928 278.026 609.114 278.297L708.868 282.065C716.054 282.336 722.099 276.731 722.37 269.545L727.682 128.778C728.102 117.655 732.338 107.016 739.678 98.6479L715.823 97.747L711.486 97.5832L616.07 93.9797Z" fill="white"/>
</g>
<path d="M619.426 120.168L673.64 122.215" stroke="#D7D8E2" stroke-width="4.3402" stroke-linecap="round"/>
<path d="M616.598 137.436L690.329 140.22" stroke="#D2CEFF" stroke-width="4.3402" stroke-linecap="round"/>
<path d="M618.113 154.865L704.855 158.141" stroke="#D7D8E2" stroke-width="4.3402" stroke-linecap="round"/>
<path d="M617.461 172.213L704.203 175.489" stroke="#D2CEFF" stroke-width="4.3402" stroke-linecap="round"/>
<path d="M616.805 189.561L703.547 192.836" stroke="#D7D8E2" stroke-width="4.3402" stroke-linecap="round"/>
<path d="M690.373 281.369L713.885 282.257C709.211 280.968 709.386 275.132 709.491 272.354L712.147 202.04C712.332 197.144 708.513 193.025 703.617 192.84C698.765 192.657 694.667 196.408 694.422 201.257L690.373 281.369Z" fill="#D7D8E2"/>
<g filter="url(#filter5_d_0_1)">
<path fill-rule="evenodd" clip-rule="evenodd" d="M584.263 188.629C577.077 188.357 571.043 193.673 570.771 200.859L567.618 284.348C567.347 291.534 572.952 297.58 580.138 297.851L679.892 301.618C687.078 301.89 690.955 296.202 691.226 289.016L694.323 207.01C694.352 206.244 694.34 205.48 694.343 204.714C694.351 202.723 694.585 198.632 696.274 196.476C698.816 193.23 703.143 192.856 703.143 192.856L684.017 192.396L679.68 192.232L584.263 188.629Z" fill="white"/>
</g>
<path d="M659.462 300.85L679.987 301.625C678.213 301.558 678.344 298.085 678.396 296.696L679.555 266.024C679.741 261.097 675.898 256.952 670.971 256.766C666.132 256.583 662.03 260.29 661.724 265.123L659.462 300.85Z" fill="#D7D8E2"/>
<g filter="url(#filter6_d_0_1)">
<path fill-rule="evenodd" clip-rule="evenodd" d="M549.289 252.159C542.103 251.888 536.057 257.493 535.786 264.679L534.68 293.955C534.409 301.141 540.014 307.186 547.2 307.458L646.954 311.225C654.14 311.496 660.185 305.891 660.457 298.705L661.536 270.131C661.545 269.886 661.55 269.643 661.558 269.398C661.602 268.039 661.87 263.215 663.487 260.476C665.382 257.266 671.21 256.768 671.21 256.768L649.042 255.927L644.705 255.763L549.289 252.159Z" fill="white"/>
</g>
<path d="M587.875 208.016L646.426 210.227" stroke="#D2CEFF" stroke-width="4.3402" stroke-linecap="round"/>
<path d="M552.891 271.844L611.442 274.055" stroke="#D2CEFF" stroke-width="4.3402" stroke-linecap="round"/>
<path d="M587.215 225.361L673.957 228.637" stroke="#D7D8E2" stroke-width="4.3402" stroke-linecap="round"/>
<path d="M552.234 289.189L638.977 292.465" stroke="#D7D8E2" stroke-width="4.3402" stroke-linecap="round"/>
<path d="M586.559 242.711L673.301 245.987" stroke="#D7D8E2" stroke-width="4.3402" stroke-linecap="round"/>
<g filter="url(#filter7_ii_0_1)">
<ellipse cx="645.342" cy="87.3266" rx="16.4182" ry="16.3974" transform="rotate(11.4338 645.342 87.3266)" fill="#FFD45B"/>
</g>
<g filter="url(#filter8_f_0_1)">
<ellipse cx="638.901" cy="88.1152" rx="2.56534" ry="2.04967" transform="rotate(11.4338 638.901 88.1152)" fill="#FF9797" fill-opacity="0.8"/>
</g>
<g filter="url(#filter9_f_0_1)">
<ellipse cx="650.467" cy="90.455" rx="2.56534" ry="2.04967" transform="rotate(11.4338 650.467 90.455)" fill="#FF9797" fill-opacity="0.8"/>
</g>
<path d="M643.965 82.1714C643.888 82.0449 643.789 81.9366 643.672 81.8529C643.555 81.7692 643.424 81.7116 643.284 81.6835C643.145 81.6554 643.002 81.6572 642.862 81.689C642.721 81.7208 642.588 81.7818 642.468 81.8686L642.275 82.008C642.245 82.0299 642.202 82.0213 642.183 81.9894L642.06 81.7861C641.905 81.5305 641.66 81.355 641.379 81.2982C641.098 81.2414 640.804 81.308 640.562 81.4832C640.32 81.6585 640.15 81.9281 640.088 82.2327C640.026 82.5373 640.079 82.852 640.234 83.1076L640.393 83.3701L641.382 85.0012C641.479 85.1607 641.691 85.2036 641.842 85.0943L643.388 83.9758L643.637 83.7958C643.757 83.709 643.86 83.5982 643.942 83.4696C644.023 83.341 644.081 83.1972 644.111 83.0463C644.142 82.8955 644.144 82.7406 644.119 82.5905C644.094 82.4404 644.042 82.298 643.965 82.1714Z" fill="#F25858"/>
<path d="M652.012 83.7984C651.935 83.6718 651.836 83.5636 651.719 83.4799C651.602 83.3961 651.47 83.3386 651.331 83.3104C651.192 83.2823 651.049 83.2842 650.908 83.316C650.768 83.3477 650.635 83.4087 650.515 83.4955L650.322 83.635C650.292 83.6569 650.249 83.6483 650.23 83.6164L650.107 83.413C649.952 83.1575 649.707 82.982 649.426 82.9252C649.145 82.8684 648.851 82.9349 648.609 83.1102C648.367 83.2854 648.196 83.555 648.135 83.8596C648.073 84.1643 648.126 84.479 648.281 84.7345L648.44 84.9971L649.429 86.6282C649.526 86.7877 649.738 86.8306 649.889 86.7212L651.435 85.6028L651.683 85.4227C651.803 85.336 651.907 85.2251 651.988 85.0966C652.07 84.968 652.127 84.8241 652.158 84.6733C652.188 84.5225 652.191 84.3675 652.166 84.2174C652.141 84.0673 652.089 83.9249 652.012 83.7984Z" fill="#F25858"/>
<g filter="url(#filter10_ii_0_1)">
<path d="M663.186 81.3883C663.158 81.191 663.092 81.0043 662.992 80.8389C662.891 80.6735 662.759 80.5326 662.601 80.4243C662.444 80.316 662.265 80.2423 662.074 80.2076C661.884 80.1729 661.686 80.1777 661.491 80.2219L661.155 80.2981C661.119 80.3063 661.083 80.2818 661.078 80.2448L661.029 79.904C660.973 79.5056 660.762 79.1589 660.444 78.9401C660.127 78.7214 659.727 78.6485 659.335 78.7376C658.942 78.8267 658.587 79.0704 658.35 79.4151C658.112 79.7598 658.01 80.1773 658.067 80.5757L658.125 80.985L658.504 83.6467C658.53 83.8314 658.708 83.9542 658.89 83.9129L661.515 83.3179L661.918 83.2264C662.113 83.1823 662.3 83.0998 662.469 82.9836C662.638 82.8674 662.786 82.7197 662.903 82.549C663.021 82.3783 663.107 82.1879 663.155 81.9888C663.204 81.7896 663.214 81.5856 663.186 81.3883Z" fill="#F25858"/>
</g>
<g filter="url(#filter11_ii_0_1)">
<path d="M629.199 94.3674C629.279 94.2334 629.384 94.1186 629.507 94.0297C629.63 93.9408 629.769 93.8794 629.915 93.8491C630.062 93.8188 630.214 93.8201 630.362 93.8531C630.51 93.886 630.652 93.9499 630.779 94.0411L630.986 94.1898C631.017 94.2115 631.059 94.2028 631.078 94.1708L631.21 93.9522C631.372 93.6816 631.63 93.4952 631.926 93.434C632.222 93.3728 632.533 93.4418 632.789 93.6259C633.046 93.8099 633.228 94.0939 633.295 94.4154C633.361 94.7369 633.307 95.0695 633.145 95.3401L632.978 95.6181L631.932 97.3617C631.836 97.5216 631.624 97.5655 631.472 97.4567L629.819 96.2707L629.555 96.0816C629.428 95.9905 629.318 95.8739 629.231 95.7384C629.144 95.603 629.083 95.4513 629.05 95.2921C629.017 95.1329 629.013 94.9693 629.038 94.8107C629.064 94.652 629.119 94.5014 629.199 94.3674Z" fill="#FF63A9"/>
</g>
<g filter="url(#filter12_ii_0_1)">
<path d="M660.082 96.3269C660.023 96.2307 659.946 96.1485 659.857 96.0851C659.767 96.0217 659.667 95.9783 659.561 95.9574C659.454 95.9365 659.345 95.9385 659.238 95.9632C659.131 95.988 659.029 96.0351 658.938 96.1018L658.805 96.1993C658.775 96.2213 658.732 96.2129 658.713 96.1811L658.627 96.0405C658.507 95.8461 658.32 95.7132 658.105 95.671C657.891 95.6288 657.667 95.6807 657.483 95.8153C657.299 95.95 657.17 96.1563 657.124 96.389C657.078 96.6216 657.12 96.8615 657.239 97.0558L657.361 97.2555L658.08 98.4259C658.177 98.5849 658.39 98.6268 658.54 98.5166L659.648 97.7057L659.838 97.5674C659.929 97.5008 660.007 97.4158 660.069 97.3174C660.13 97.219 660.174 97.109 660.197 96.9938C660.219 96.8786 660.221 96.7604 660.201 96.646C660.181 96.5316 660.141 96.4232 660.082 96.3269Z" fill="#FF63A9"/>
</g>
<mask id="mask0_0_1" style="mask-type:alpha" maskUnits="userSpaceOnUse" x="640" y="87" width="10" height="6">
<path d="M644.327 92.349C641.074 91.6912 640.631 89.172 640.639 87.8062C640.642 87.3672 641.114 87.1392 641.507 87.334C642.323 87.7382 643.672 88.3282 645.082 88.6135C646.493 88.8987 647.965 88.8792 648.874 88.8239C649.312 88.7973 649.658 89.1907 649.49 89.5962C648.966 90.8578 647.579 93.0067 644.327 92.349Z" fill="#CCA94F"/>
</mask>
<g mask="url(#mask0_0_1)">
<path d="M644.327 92.349C641.074 91.6912 640.631 89.172 640.639 87.8062C640.642 87.3672 641.114 87.1392 641.507 87.334C642.323 87.7382 643.672 88.3282 645.082 88.6135C646.493 88.8987 647.965 88.8792 648.874 88.8239C649.312 88.7973 649.658 89.1907 649.49 89.5962C648.966 90.8578 647.579 93.0067 644.327 92.349Z" fill="#CC9E2A"/>
<ellipse cx="644.227" cy="92.8521" rx="3.59147" ry="2.56209" transform="rotate(11.4338 644.227 92.8521)" fill="#F0BF40"/>
</g>
<g filter="url(#filter13_ii_0_1)">
<rect x="457.312" y="40.6367" width="3.02423" height="4.0323" rx="1.25692" transform="rotate(-47.2381 457.312 40.6367)" fill="#FFB75A"/>
</g>
<g filter="url(#filter14_ii_0_1)">
<rect x="447.254" y="42.3848" width="3.02423" height="4.0323" rx="1.25692" transform="rotate(111.786 447.254 42.3848)" fill="#FF8989"/>
</g>
<g filter="url(#filter15_ii_0_1)">
<mask id="mask1_0_1" style="mask-type:alpha" maskUnits="userSpaceOnUse" x="430" y="10" width="14" height="14">
<path d="M430.891 13.4245C430.286 11.7908 431.781 10.1572 433.462 10.6148L442.134 12.976C443.681 13.397 444.234 15.3055 443.152 16.488L437.599 22.5564C436.517 23.7389 434.567 23.3572 434.011 21.854L430.891 13.4245Z" fill="#D9D9D9"/>
</mask>
<g mask="url(#mask1_0_1)">
<rect x="430.449" y="9.40625" width="3.02587" height="11.2586" rx="1.07078" transform="rotate(-1.64067 430.449 9.40625)" fill="#6F60FF"/>
<rect x="433.137" y="8.23242" width="3.02587" height="16.3107" rx="1.07078" transform="rotate(-1.64067 433.137 8.23242)" fill="#9F94FF"/>
<rect x="435.82" y="7.05664" width="3.02587" height="17.9346" rx="1.07078" transform="rotate(-1.64067 435.82 7.05664)" fill="#6F60FF"/>
<rect x="438.504" y="5.88281" width="3.02587" height="16.3107" rx="1.07078" transform="rotate(-1.64067 438.504 5.88281)" fill="#9F94FF"/>
<rect x="441.191" y="4.71094" width="3.02587" height="16.3107" rx="1.07078" transform="rotate(-1.64067 441.191 4.71094)" fill="#6F60FF"/>
</g>
</g>
<g filter="url(#filter16_ii_0_1)">
<ellipse cx="450.063" cy="27.1161" rx="16.0548" ry="16.1292" transform="rotate(-11.9542 450.063 27.1161)" fill="#FFD45B"/>
</g>
<path d="M443.653 25.8973C443.653 25.8973 443.34 24.418 444.812 24.1062C446.285 23.7945 446.598 25.2738 446.598 25.2738" stroke="#353743" stroke-width="1.25692" stroke-linecap="round"/>
<path d="M452.485 24.0281C452.485 24.0281 452.172 22.5488 453.644 22.2371C455.117 21.9253 455.43 23.4046 455.43 23.4046" stroke="#353743" stroke-width="1.25692" stroke-linecap="round"/>
<g filter="url(#filter17_f_0_1)">
<ellipse cx="444.591" cy="30.3356" rx="2.50856" ry="2.01615" transform="rotate(-11.9542 444.591 30.3356)" fill="#FF9797" fill-opacity="0.8"/>
</g>
<g filter="url(#filter18_f_0_1)">
<ellipse cx="455.88" cy="27.945" rx="2.50856" ry="2.01615" transform="rotate(-11.9542 455.88 27.945)" fill="#FF9797" fill-opacity="0.8"/>
</g>
<g filter="url(#filter19_ii_0_1)">
<mask id="mask2_0_1" style="mask-type:alpha" maskUnits="userSpaceOnUse" x="451" y="24" width="15" height="8">
<path d="M451.174 29.585C450.995 28.9326 451.364 28.2551 452.01 28.0524L463.083 24.5758C463.762 24.3626 464.483 24.7553 464.672 25.4415L465.05 26.8175C465.239 27.5037 464.821 28.2097 464.128 28.3739L452.835 31.0517C452.176 31.2078 451.513 30.8146 451.333 30.1622L451.174 29.585Z" fill="#D9D9D9"/>
</mask>
<g mask="url(#mask2_0_1)">
<rect x="451.09" y="25.7383" width="2.01615" height="8.06461" rx="1.00808" transform="rotate(10.0198 451.09 25.7383)" fill="#9F94FF"/>
<rect x="453.035" y="25.2031" width="2.01615" height="8.0646" rx="1.00808" transform="rotate(10.0198 453.035 25.2031)" fill="#6F60FF"/>
<rect x="454.977" y="24.668" width="2.01615" height="8.0646" rx="1.00808" transform="rotate(10.0198 454.977 24.668)" fill="#9F94FF"/>
<rect x="456.918" y="24.1328" width="2.01615" height="8.0646" rx="1.00808" transform="rotate(10.0198 456.918 24.1328)" fill="#6F60FF"/>
<rect x="458.867" y="23.5977" width="2.01615" height="8.06461" rx="1.00808" transform="rotate(10.0197 458.867 23.5977)" fill="#9F94FF"/>
<rect x="460.809" y="23.0625" width="2.01615" height="8.06461" rx="1.00808" transform="rotate(10.0198 460.809 23.0625)" fill="#6F60FF"/>
<rect x="462.754" y="22.5273" width="2.01615" height="8.06461" rx="1.00808" transform="rotate(10.0198 462.754 22.5273)" fill="#9F94FF"/>
<rect x="464.695" y="21.9922" width="2.01615" height="8.0646" rx="1.00808" transform="rotate(10.0198 464.695 21.9922)" fill="#6F60FF"/>
</g>
</g>
<path d="M448.889 28.5058C449.189 27.8357 450.557 27.2267 451.084 27.8016C451.56 28.3206 451.416 29.0201 450.896 29.5288C450.792 29.631 450.897 30.0167 451.04 30.044C451.561 30.143 451.972 30.4123 451.959 30.9695C451.938 31.8561 451.235 32.3679 449.617 31.9443" stroke="#F25858" stroke-width="1.25692" stroke-linecap="round"/>
<g filter="url(#filter20_ii_0_1)">
<rect x="432.641" y="28.2305" width="3.02423" height="4.0323" rx="1.25692" transform="rotate(6.80759 432.641 28.2305)" fill="#7BE9BD"/>
</g>
<g filter="url(#filter21_ii_0_1)">
<rect x="462.203" y="13.2129" width="3.02423" height="4.0323" rx="1.25692" transform="rotate(19.1199 462.203 13.2129)" fill="#FF8989"/>
</g>
<g filter="url(#filter22_ii_0_1)">
<rect x="455.438" y="8.33008" width="3.02423" height="4.0323" rx="1.25692" transform="rotate(-50.5267 455.438 8.33008)" fill="#89B5FF"/>
</g>
<g filter="url(#filter23_ii_0_1)">
<rect x="446.875" y="10" width="3.02423" height="4.0323" rx="1.25692" transform="rotate(-34.635 446.875 10)" fill="#FF8989"/>
</g>
<g filter="url(#filter24_ii_0_1)">
<rect x="440.191" y="4.92578" width="3.02423" height="4.0323" rx="1.25692" transform="rotate(19.1199 440.191 4.92578)" fill="#FFB75A"/>
</g>
<g filter="url(#filter25_ii_0_1)">
<rect x="432.039" y="41.3984" width="3.02423" height="4.0323" rx="1.25692" transform="rotate(-34.635 432.039 41.3984)" fill="#89B5FF"/>
</g>
<g filter="url(#filter26_ii_0_1)">
<rect x="467.398" y="34.1914" width="3.02423" height="4.0323" rx="1.25692" transform="rotate(28.1305 467.398 34.1914)" fill="#7BE9BD"/>
</g>
<defs>
<filter id="filter0_ii_0_1" x="96.5809" y="120.917" width="50.9135" height="49.0611" filterUnits="userSpaceOnUse" color-interpolation-filters="sRGB">
<feFlood flood-opacity="0" result="BackgroundImageFix"/>
<feBlend mode="normal" in="SourceGraphic" in2="BackgroundImageFix" result="shape"/>
<feColorMatrix in="SourceAlpha" type="matrix" values="0 0 0 0 0 0 0 0 0 0 0 0 0 0 0 0 0 0 127 0" result="hardAlpha"/>
<feMorphology radius="2.01646" operator="dilate" in="SourceAlpha" result="effect1_innerShadow_0_1"/>
<feOffset dx="6.04937" dy="-3.36076"/>
<feGaussianBlur stdDeviation="3.69684"/>
<feComposite in2="hardAlpha" operator="arithmetic" k2="-1" k3="1"/>
<feColorMatrix type="matrix" values="0 0 0 0 1 0 0 0 0 0.707984 0 0 0 0 0.195833 0 0 0 1 0"/>
<feBlend mode="normal" in2="shape" result="effect1_innerShadow_0_1"/>
<feColorMatrix in="SourceAlpha" type="matrix" values="0 0 0 0 0 0 0 0 0 0 0 0 0 0 0 0 0 0 127 0" result="hardAlpha"/>
<feOffset dx="-2.68861" dy="2.68861"/>
<feGaussianBlur stdDeviation="1.3443"/>
<feComposite in2="hardAlpha" operator="arithmetic" k2="-1" k3="1"/>
<feColorMatrix type="matrix" values="0 0 0 0 1 0 0 0 0 0.89 0 0 0 0 0.45 0 0 0 1 0"/>
<feBlend mode="normal" in2="effect1_innerShadow_0_1" result="effect2_innerShadow_0_1"/>
</filter>
<filter id="filter1_ii_0_1" x="134.941" y="139.832" width="12.4074" height="15.7444" filterUnits="userSpaceOnUse" color-interpolation-filters="sRGB">
<feFlood flood-opacity="0" result="BackgroundImageFix"/>
<feBlend mode="normal" in="SourceGraphic" in2="BackgroundImageFix" result="shape"/>
<feColorMatrix in="SourceAlpha" type="matrix" values="0 0 0 0 0 0 0 0 0 0 0 0 0 0 0 0 0 0 127 0" result="hardAlpha"/>
<feOffset dx="2.01646"/>
<feGaussianBlur stdDeviation="1.51234"/>
<feComposite in2="hardAlpha" operator="arithmetic" k2="-1" k3="1"/>
<feColorMatrix type="matrix" values="0 0 0 0 1 0 0 0 0 0.519352 0 0 0 0 0.00555547 0 0 0 0.9 0"/>
<feBlend mode="normal" in2="shape" result="effect1_innerShadow_0_1"/>
<feColorMatrix in="SourceAlpha" type="matrix" values="0 0 0 0 0 0 0 0 0 0 0 0 0 0 0 0 0 0 127 0" result="hardAlpha"/>
<feOffset dx="-0.672152" dy="0.672152"/>
<feGaussianBlur stdDeviation="1.00823"/>
<feComposite in2="hardAlpha" operator="arithmetic" k2="-1" k3="1"/>
<feColorMatrix type="matrix" values="0 0 0 0 1 0 0 0 0 0.761585 0 0 0 0 0.423611 0 0 0 1 0"/>
<feBlend mode="normal" in2="effect1_innerShadow_0_1" result="effect2_innerShadow_0_1"/>
</filter>
<filter id="filter2_f_0_1" x="105.103" y="142.543" width="17.3482" height="16.2525" filterUnits="userSpaceOnUse" color-interpolation-filters="sRGB">
<feFlood flood-opacity="0" result="BackgroundImageFix"/>
<feBlend mode="normal" in="SourceGraphic" in2="BackgroundImageFix" result="shape"/>
<feGaussianBlur stdDeviation="2.68861" result="effect1_foregroundBlur_0_1"/>
</filter>
<filter id="filter3_f_0_1" x="119.842" y="138.115" width="17.3482" height="16.2525" filterUnits="userSpaceOnUse" color-interpolation-filters="sRGB">
<feFlood flood-opacity="0" result="BackgroundImageFix"/>
<feBlend mode="normal" in="SourceGraphic" in2="BackgroundImageFix" result="shape"/>
<feGaussianBlur stdDeviation="2.68861" result="effect1_foregroundBlur_0_1"/>
</filter>
<filter id="filter4_d_0_1" x="587.906" y="83.1202" width="160.451" height="205.464" filterUnits="userSpaceOnUse" color-interpolation-filters="sRGB">
<feFlood flood-opacity="0" result="BackgroundImageFix"/>
<feColorMatrix in="SourceAlpha" type="matrix" values="0 0 0 0 0 0 0 0 0 0 0 0 0 0 0 0 0 0 127 0" result="hardAlpha"/>
<feOffset dy="-2.1701"/>
<feGaussianBlur stdDeviation="4.3402"/>
<feComposite in2="hardAlpha" operator="out"/>
<feColorMatrix type="matrix" values="0 0 0 0 0 0 0 0 0 0 0 0 0 0 0 0 0 0 0.1 0"/>
<feBlend mode="normal" in2="BackgroundImageFix" result="effect1_dropShadow_0_1"/>
<feBlend mode="normal" in="SourceGraphic" in2="effect1_dropShadow_0_1" result="shape"/>
</filter>
<filter id="filter5_d_0_1" x="558.929" y="177.769" width="152.896" height="130.369" filterUnits="userSpaceOnUse" color-interpolation-filters="sRGB">
<feFlood flood-opacity="0" result="BackgroundImageFix"/>
<feColorMatrix in="SourceAlpha" type="matrix" values="0 0 0 0 0 0 0 0 0 0 0 0 0 0 0 0 0 0 127 0" result="hardAlpha"/>
<feOffset dy="-2.1701"/>
<feGaussianBlur stdDeviation="4.3402"/>
<feComposite in2="hardAlpha" operator="out"/>
<feColorMatrix type="matrix" values="0 0 0 0 0 0 0 0 0 0 0 0 0 0 0 0 0 0 0.1 0"/>
<feBlend mode="normal" in2="BackgroundImageFix" result="effect1_dropShadow_0_1"/>
<feBlend mode="normal" in="SourceGraphic" in2="effect1_dropShadow_0_1" result="shape"/>
</filter>
<filter id="filter6_d_0_1" x="525.991" y="241.3" width="153.9" height="76.4448" filterUnits="userSpaceOnUse" color-interpolation-filters="sRGB">
<feFlood flood-opacity="0" result="BackgroundImageFix"/>
<feColorMatrix in="SourceAlpha" type="matrix" values="0 0 0 0 0 0 0 0 0 0 0 0 0 0 0 0 0 0 127 0" result="hardAlpha"/>
<feOffset dy="-2.1701"/>
<feGaussianBlur stdDeviation="4.3402"/>
<feComposite in2="hardAlpha" operator="out"/>
<feColorMatrix type="matrix" values="0 0 0 0 0 0 0 0 0 0 0 0 0 0 0 0 0 0 0.1 0"/>
<feBlend mode="normal" in2="BackgroundImageFix" result="effect1_dropShadow_0_1"/>
<feBlend mode="normal" in="SourceGraphic" in2="effect1_dropShadow_0_1" result="shape"/>
</filter>
<filter id="filter7_ii_0_1" x="626.368" y="67.7335" width="40.5012" height="38.5488" filterUnits="userSpaceOnUse" color-interpolation-filters="sRGB">
<feFlood flood-opacity="0" result="BackgroundImageFix"/>
<feBlend mode="normal" in="SourceGraphic" in2="BackgroundImageFix" result="shape"/>
<feColorMatrix in="SourceAlpha" type="matrix" values="0 0 0 0 0 0 0 0 0 0 0 0 0 0 0 0 0 0 127 0" result="hardAlpha"/>
<feMorphology radius="1.91535" operator="dilate" in="SourceAlpha" result="effect1_innerShadow_0_1"/>
<feOffset dx="5.74604" dy="-3.19225"/>
<feGaussianBlur stdDeviation="3.51147"/>
<feComposite in2="hardAlpha" operator="arithmetic" k2="-1" k3="1"/>
<feColorMatrix type="matrix" values="0 0 0 0 1 0 0 0 0 0.707984 0 0 0 0 0.195833 0 0 0 1 0"/>
<feBlend mode="normal" in2="shape" result="effect1_innerShadow_0_1"/>
<feColorMatrix in="SourceAlpha" type="matrix" values="0 0 0 0 0 0 0 0 0 0 0 0 0 0 0 0 0 0 127 0" result="hardAlpha"/>
<feOffset dx="-2.5538" dy="2.5538"/>
<feGaussianBlur stdDeviation="1.2769"/>
<feComposite in2="hardAlpha" operator="arithmetic" k2="-1" k3="1"/>
<feColorMatrix type="matrix" values="0 0 0 0 1 0 0 0 0 0.89 0 0 0 0 0.45 0 0 0 1 0"/>
<feBlend mode="normal" in2="effect1_innerShadow_0_1" result="effect2_innerShadow_0_1"/>
</filter>
<filter id="filter8_f_0_1" x="631.248" y="80.9354" width="15.3089" height="14.3597" filterUnits="userSpaceOnUse" color-interpolation-filters="sRGB">
<feFlood flood-opacity="0" result="BackgroundImageFix"/>
<feBlend mode="normal" in="SourceGraphic" in2="BackgroundImageFix" result="shape"/>
<feGaussianBlur stdDeviation="2.5538" result="effect1_foregroundBlur_0_1"/>
</filter>
<filter id="filter9_f_0_1" x="642.814" y="83.2752" width="15.3089" height="14.3597" filterUnits="userSpaceOnUse" color-interpolation-filters="sRGB">
<feFlood flood-opacity="0" result="BackgroundImageFix"/>
<feBlend mode="normal" in="SourceGraphic" in2="BackgroundImageFix" result="shape"/>
<feGaussianBlur stdDeviation="2.5538" result="effect1_foregroundBlur_0_1"/>
</filter>
<filter id="filter10_ii_0_1" x="657.412" y="78.7012" width="6.42924" height="5.85915" filterUnits="userSpaceOnUse" color-interpolation-filters="sRGB">
<feFlood flood-opacity="0" result="BackgroundImageFix"/>
<feBlend mode="normal" in="SourceGraphic" in2="BackgroundImageFix" result="shape"/>
<feColorMatrix in="SourceAlpha" type="matrix" values="0 0 0 0 0 0 0 0 0 0 0 0 0 0 0 0 0 0 127 0" result="hardAlpha"/>
<feOffset dx="0.638449"/>
<feGaussianBlur stdDeviation="1.43651"/>
<feComposite in2="hardAlpha" operator="arithmetic" k2="-1" k3="1"/>
<feColorMatrix type="matrix" values="0 0 0 0 0.987457 0 0 0 0 0.216692 0 0 0 0 0.216692 0 0 0 1 0"/>
<feBlend mode="normal" in2="shape" result="effect1_innerShadow_0_1"/>
<feColorMatrix in="SourceAlpha" type="matrix" values="0 0 0 0 0 0 0 0 0 0 0 0 0 0 0 0 0 0 127 0" result="hardAlpha"/>
<feOffset dx="-0.638449" dy="0.638449"/>
<feGaussianBlur stdDeviation="0.638449"/>
<feComposite in2="hardAlpha" operator="arithmetic" k2="-1" k3="1"/>
<feColorMatrix type="matrix" values="0 0 0 0 1 0 0 0 0 0.516667 0 0 0 0 0.516667 0 0 0 1 0"/>
<feBlend mode="normal" in2="effect1_innerShadow_0_1" result="effect2_innerShadow_0_1"/>
</filter>
<filter id="filter11_ii_0_1" x="628.385" y="93.4121" width="5.57768" height="4.74392" filterUnits="userSpaceOnUse" color-interpolation-filters="sRGB">
<feFlood flood-opacity="0" result="BackgroundImageFix"/>
<feBlend mode="normal" in="SourceGraphic" in2="BackgroundImageFix" result="shape"/>
<feColorMatrix in="SourceAlpha" type="matrix" values="0 0 0 0 0 0 0 0 0 0 0 0 0 0 0 0 0 0 127 0" result="hardAlpha"/>
<feOffset dx="0.638449"/>
<feGaussianBlur stdDeviation="1.43651"/>
<feComposite in2="hardAlpha" operator="arithmetic" k2="-1" k3="1"/>
<feColorMatrix type="matrix" values="0 0 0 0 1 0 0 0 0 0.202778 0 0 0 0 0.548072 0 0 0 1 0"/>
<feBlend mode="normal" in2="shape" result="effect1_innerShadow_0_1"/>
<feColorMatrix in="SourceAlpha" type="matrix" values="0 0 0 0 0 0 0 0 0 0 0 0 0 0 0 0 0 0 127 0" result="hardAlpha"/>
<feOffset dx="-0.638449" dy="0.638449"/>
<feGaussianBlur stdDeviation="0.638449"/>
<feComposite in2="hardAlpha" operator="arithmetic" k2="-1" k3="1"/>
<feColorMatrix type="matrix" values="0 0 0 0 1 0 0 0 0 0.526389 0 0 0 0 0.736571 0 0 0 1 0"/>
<feBlend mode="normal" in2="effect1_innerShadow_0_1" result="effect2_innerShadow_0_1"/>
</filter>
<filter id="filter12_ii_0_1" x="656.467" y="95.6562" width="4.38627" height="3.56032" filterUnits="userSpaceOnUse" color-interpolation-filters="sRGB">
<feFlood flood-opacity="0" result="BackgroundImageFix"/>
<feBlend mode="normal" in="SourceGraphic" in2="BackgroundImageFix" result="shape"/>
<feColorMatrix in="SourceAlpha" type="matrix" values="0 0 0 0 0 0 0 0 0 0 0 0 0 0 0 0 0 0 127 0" result="hardAlpha"/>
<feOffset dx="0.638449"/>
<feGaussianBlur stdDeviation="1.43651"/>
<feComposite in2="hardAlpha" operator="arithmetic" k2="-1" k3="1"/>
<feColorMatrix type="matrix" values="0 0 0 0 1 0 0 0 0 0.202778 0 0 0 0 0.548072 0 0 0 1 0"/>
<feBlend mode="normal" in2="shape" result="effect1_innerShadow_0_1"/>
<feColorMatrix in="SourceAlpha" type="matrix" values="0 0 0 0 0 0 0 0 0 0 0 0 0 0 0 0 0 0 127 0" result="hardAlpha"/>
<feOffset dx="-0.638449" dy="0.638449"/>
<feGaussianBlur stdDeviation="0.638449"/>
<feComposite in2="hardAlpha" operator="arithmetic" k2="-1" k3="1"/>
<feColorMatrix type="matrix" values="0 0 0 0 1 0 0 0 0 0.526389 0 0 0 0 0.736571 0 0 0 1 0"/>
<feBlend mode="normal" in2="effect1_innerShadow_0_1" result="effect2_innerShadow_0_1"/>
</filter>
<filter id="filter13_ii_0_1" x="457.769" y="38.3071" width="4.66787" height="5.17684" filterUnits="userSpaceOnUse" color-interpolation-filters="sRGB">
<feFlood flood-opacity="0" result="BackgroundImageFix"/>
<feBlend mode="normal" in="SourceGraphic" in2="BackgroundImageFix" result="shape"/>
<feColorMatrix in="SourceAlpha" type="matrix" values="0 0 0 0 0 0 0 0 0 0 0 0 0 0 0 0 0 0 127 0" result="hardAlpha"/>
<feOffset dx="0.628461" dy="-0.628461"/>
<feGaussianBlur stdDeviation="1.25692"/>
<feComposite in2="hardAlpha" operator="arithmetic" k2="-1" k3="1"/>
<feColorMatrix type="matrix" values="0 0 0 0 1 0 0 0 0 0.485185 0 0 0 0 0.227778 0 0 0 0.3 0"/>
<feBlend mode="normal" in2="shape" result="effect1_innerShadow_0_1"/>
<feColorMatrix in="SourceAlpha" type="matrix" values="0 0 0 0 0 0 0 0 0 0 0 0 0 0 0 0 0 0 127 0" result="hardAlpha"/>
<feOffset dx="-0.0628461" dy="0.628461"/>
<feGaussianBlur stdDeviation="0.628461"/>
<feComposite in2="hardAlpha" operator="arithmetic" k2="-1" k3="1"/>
<feColorMatrix type="matrix" values="0 0 0 0 1 0 0 0 0 0.843704 0 0 0 0 0.706944 0 0 0 0.8 0"/>
<feBlend mode="normal" in2="effect1_innerShadow_0_1" result="effect2_innerShadow_0_1"/>
</filter>
<filter id="filter14_ii_0_1" x="442.699" y="40.6352" width="4.80849" height="4.80966" filterUnits="userSpaceOnUse" color-interpolation-filters="sRGB">
<feFlood flood-opacity="0" result="BackgroundImageFix"/>
<feBlend mode="normal" in="SourceGraphic" in2="BackgroundImageFix" result="shape"/>
<feColorMatrix in="SourceAlpha" type="matrix" values="0 0 0 0 0 0 0 0 0 0 0 0 0 0 0 0 0 0 127 0" result="hardAlpha"/>
<feOffset dx="0.628461" dy="-0.628461"/>
<feGaussianBlur stdDeviation="1.25692"/>
<feComposite in2="hardAlpha" operator="arithmetic" k2="-1" k3="1"/>
<feColorMatrix type="matrix" values="0 0 0 0 1 0 0 0 0 0.227778 0 0 0 0 0.227778 0 0 0 0.3 0"/>
<feBlend mode="normal" in2="shape" result="effect1_innerShadow_0_1"/>
<feColorMatrix in="SourceAlpha" type="matrix" values="0 0 0 0 0 0 0 0 0 0 0 0 0 0 0 0 0 0 127 0" result="hardAlpha"/>
<feOffset dx="-0.0628461" dy="0.628461"/>
<feGaussianBlur stdDeviation="0.628461"/>
<feComposite in2="hardAlpha" operator="arithmetic" k2="-1" k3="1"/>
<feColorMatrix type="matrix" values="0 0 0 0 1 0 0 0 0 0.706944 0 0 0 0 0.706944 0 0 0 0.8 0"/>
<feBlend mode="normal" in2="effect1_innerShadow_0_1" result="effect2_innerShadow_0_1"/>
</filter>
<filter id="filter15_ii_0_1" x="430.219" y="9.46633" width="14.5671" height="14.8564" filterUnits="userSpaceOnUse" color-interpolation-filters="sRGB">
<feFlood flood-opacity="0" result="BackgroundImageFix"/>
<feBlend mode="normal" in="SourceGraphic" in2="BackgroundImageFix" result="shape"/>
<feColorMatrix in="SourceAlpha" type="matrix" values="0 0 0 0 0 0 0 0 0 0 0 0 0 0 0 0 0 0 127 0" result="hardAlpha"/>
<feOffset dx="1.07078" dy="-1.07078"/>
<feGaussianBlur stdDeviation="1.60617"/>
<feComposite in2="hardAlpha" operator="arithmetic" k2="-1" k3="1"/>
<feColorMatrix type="matrix" values="0 0 0 0 0.514465 0 0 0 0 0.463889 0 0 0 0 1 0 0 0 0.75 0"/>
<feBlend mode="normal" in2="shape" result="effect1_innerShadow_0_1"/>
<feColorMatrix in="SourceAlpha" type="matrix" values="0 0 0 0 0 0 0 0 0 0 0 0 0 0 0 0 0 0 127 0" result="hardAlpha"/>
<feOffset dx="-0.53539" dy="1.60617"/>
<feGaussianBlur stdDeviation="0.53539"/>
<feComposite in2="hardAlpha" operator="arithmetic" k2="-1" k3="1"/>
<feColorMatrix type="matrix" values="0 0 0 0 0.61952 0 0 0 0 0.579167 0 0 0 0 1 0 0 0 0.75 0"/>
<feBlend mode="normal" in2="effect1_innerShadow_0_1" result="effect2_innerShadow_0_1"/>
</filter>
<filter id="filter16_ii_0_1" x="431.486" y="7.84403" width="39.6665" height="37.9159" filterUnits="userSpaceOnUse" color-interpolation-filters="sRGB">
<feFlood flood-opacity="0" result="BackgroundImageFix"/>
<feBlend mode="normal" in="SourceGraphic" in2="BackgroundImageFix" result="shape"/>
<feColorMatrix in="SourceAlpha" type="matrix" values="0 0 0 0 0 0 0 0 0 0 0 0 0 0 0 0 0 0 127 0" result="hardAlpha"/>
<feMorphology radius="1.88538" operator="dilate" in="SourceAlpha" result="effect1_innerShadow_0_1"/>
<feOffset dx="5.65615" dy="-3.1423"/>
<feGaussianBlur stdDeviation="3.45653"/>
<feComposite in2="hardAlpha" operator="arithmetic" k2="-1" k3="1"/>
<feColorMatrix type="matrix" values="0 0 0 0 1 0 0 0 0 0.707984 0 0 0 0 0.195833 0 0 0 1 0"/>
<feBlend mode="normal" in2="shape" result="effect1_innerShadow_0_1"/>
<feColorMatrix in="SourceAlpha" type="matrix" values="0 0 0 0 0 0 0 0 0 0 0 0 0 0 0 0 0 0 127 0" result="hardAlpha"/>
<feOffset dx="-2.51384" dy="2.51384"/>
<feGaussianBlur stdDeviation="1.25692"/>
<feComposite in2="hardAlpha" operator="arithmetic" k2="-1" k3="1"/>
<feColorMatrix type="matrix" values="0 0 0 0 1 0 0 0 0 0.89 0 0 0 0 0.45 0 0 0 1 0"/>
<feBlend mode="normal" in2="effect1_innerShadow_0_1" result="effect2_innerShadow_0_1"/>
</filter>
<filter id="filter17_f_0_1" x="437.074" y="23.2672" width="15.0358" height="14.1354" filterUnits="userSpaceOnUse" color-interpolation-filters="sRGB">
<feFlood flood-opacity="0" result="BackgroundImageFix"/>
<feBlend mode="normal" in="SourceGraphic" in2="BackgroundImageFix" result="shape"/>
<feGaussianBlur stdDeviation="2.51384" result="effect1_foregroundBlur_0_1"/>
</filter>
<filter id="filter18_f_0_1" x="448.363" y="20.8766" width="15.0358" height="14.1354" filterUnits="userSpaceOnUse" color-interpolation-filters="sRGB">
<feFlood flood-opacity="0" result="BackgroundImageFix"/>
<feBlend mode="normal" in="SourceGraphic" in2="BackgroundImageFix" result="shape"/>
<feGaussianBlur stdDeviation="2.51384" result="effect1_foregroundBlur_0_1"/>
</filter>
<filter id="filter19_ii_0_1" x="450.5" y="23.8891" width="15.2218" height="7.82528" filterUnits="userSpaceOnUse" color-interpolation-filters="sRGB">
<feFlood flood-opacity="0" result="BackgroundImageFix"/>
<feBlend mode="normal" in="SourceGraphic" in2="BackgroundImageFix" result="shape"/>
<feColorMatrix in="SourceAlpha" type="matrix" values="0 0 0 0 0 0 0 0 0 0 0 0 0 0 0 0 0 0 127 0" result="hardAlpha"/>
<feOffset dx="0.628461" dy="-0.628461"/>
<feGaussianBlur stdDeviation="1.88538"/>
<feComposite in2="hardAlpha" operator="arithmetic" k2="-1" k3="1"/>
<feColorMatrix type="matrix" values="0 0 0 0 0.456962 0 0 0 0 0.4 0 0 0 0 1 0 0 0 0.7 0"/>
<feBlend mode="normal" in2="shape" result="effect1_innerShadow_0_1"/>
<feColorMatrix in="SourceAlpha" type="matrix" values="0 0 0 0 0 0 0 0 0 0 0 0 0 0 0 0 0 0 127 0" result="hardAlpha"/>
<feOffset dx="-0.628461" dy="0.628461"/>
<feGaussianBlur stdDeviation="0.628461"/>
<feComposite in2="hardAlpha" operator="arithmetic" k2="-1" k3="1"/>
<feColorMatrix type="matrix" values="0 0 0 0 0.713889 0 0 0 0 0.742333 0 0 0 0 1 0 0 0 0.5 0"/>
<feBlend mode="normal" in2="effect1_innerShadow_0_1" result="effect2_innerShadow_0_1"/>
</filter>
<filter id="filter20_ii_0_1" x="432.238" y="27.7426" width="3.89443" height="5.33895" filterUnits="userSpaceOnUse" color-interpolation-filters="sRGB">
<feFlood flood-opacity="0" result="BackgroundImageFix"/>
<feBlend mode="normal" in="SourceGraphic" in2="BackgroundImageFix" result="shape"/>
<feColorMatrix in="SourceAlpha" type="matrix" values="0 0 0 0 0 0 0 0 0 0 0 0 0 0 0 0 0 0 127 0" result="hardAlpha"/>
<feOffset dx="0.628461" dy="-0.628461"/>
<feGaussianBlur stdDeviation="1.25692"/>
<feComposite in2="hardAlpha" operator="arithmetic" k2="-1" k3="1"/>
<feColorMatrix type="matrix" values="0 0 0 0 0.10697 0 0 0 0 0.487457 0 0 0 0 0.32892 0 0 0 0.3 0"/>
<feBlend mode="normal" in2="shape" result="effect1_innerShadow_0_1"/>
<feColorMatrix in="SourceAlpha" type="matrix" values="0 0 0 0 0 0 0 0 0 0 0 0 0 0 0 0 0 0 127 0" result="hardAlpha"/>
<feOffset dx="-0.0628461" dy="0.628461"/>
<feGaussianBlur stdDeviation="0.628461"/>
<feComposite in2="hardAlpha" operator="arithmetic" k2="-1" k3="1"/>
<feColorMatrix type="matrix" values="0 0 0 0 0.751389 0 0 0 0 1 0 0 0 0 0.937847 0 0 0 0.8 0"/>
<feBlend mode="normal" in2="effect1_innerShadow_0_1" result="effect2_innerShadow_0_1"/>
</filter>
<filter id="filter21_ii_0_1" x="461.16" y="12.9262" width="4.1874" height="5.37411" filterUnits="userSpaceOnUse" color-interpolation-filters="sRGB">
<feFlood flood-opacity="0" result="BackgroundImageFix"/>
<feBlend mode="normal" in="SourceGraphic" in2="BackgroundImageFix" result="shape"/>
<feColorMatrix in="SourceAlpha" type="matrix" values="0 0 0 0 0 0 0 0 0 0 0 0 0 0 0 0 0 0 127 0" result="hardAlpha"/>
<feOffset dx="0.628461" dy="-0.628461"/>
<feGaussianBlur stdDeviation="1.25692"/>
<feComposite in2="hardAlpha" operator="arithmetic" k2="-1" k3="1"/>
<feColorMatrix type="matrix" values="0 0 0 0 1 0 0 0 0 0.227778 0 0 0 0 0.227778 0 0 0 0.3 0"/>
<feBlend mode="normal" in2="shape" result="effect1_innerShadow_0_1"/>
<feColorMatrix in="SourceAlpha" type="matrix" values="0 0 0 0 0 0 0 0 0 0 0 0 0 0 0 0 0 0 127 0" result="hardAlpha"/>
<feOffset dx="-0.0628461" dy="0.628461"/>
<feGaussianBlur stdDeviation="0.628461"/>
<feComposite in2="hardAlpha" operator="arithmetic" k2="-1" k3="1"/>
<feColorMatrix type="matrix" values="0 0 0 0 1 0 0 0 0 0.706944 0 0 0 0 0.706944 0 0 0 0.8 0"/>
<feBlend mode="normal" in2="effect1_innerShadow_0_1" result="effect2_innerShadow_0_1"/>
</filter>
<filter id="filter22_ii_0_1" x="455.886" y="5.87935" width="4.70303" height="5.12997" filterUnits="userSpaceOnUse" color-interpolation-filters="sRGB">
<feFlood flood-opacity="0" result="BackgroundImageFix"/>
<feBlend mode="normal" in="SourceGraphic" in2="BackgroundImageFix" result="shape"/>
<feColorMatrix in="SourceAlpha" type="matrix" values="0 0 0 0 0 0 0 0 0 0 0 0 0 0 0 0 0 0 127 0" result="hardAlpha"/>
<feOffset dx="0.628461" dy="-0.628461"/>
<feGaussianBlur stdDeviation="1.25692"/>
<feComposite in2="hardAlpha" operator="arithmetic" k2="-1" k3="1"/>
<feColorMatrix type="matrix" values="0 0 0 0 0.3181 0 0 0 0 0.532702 0 0 0 0 0.99579 0 0 0 0.3 0"/>
<feBlend mode="normal" in2="shape" result="effect1_innerShadow_0_1"/>
<feColorMatrix in="SourceAlpha" type="matrix" values="0 0 0 0 0 0 0 0 0 0 0 0 0 0 0 0 0 0 127 0" result="hardAlpha"/>
<feOffset dx="-0.0628461" dy="0.628461"/>
<feGaussianBlur stdDeviation="0.628461"/>
<feComposite in2="hardAlpha" operator="arithmetic" k2="-1" k3="1"/>
<feColorMatrix type="matrix" values="0 0 0 0 0.736111 0 0 0 0 0.83287 0 0 0 0 1 0 0 0 0.8 0"/>
<feBlend mode="normal" in2="effect1_innerShadow_0_1" result="effect2_innerShadow_0_1"/>
</filter>
<filter id="filter23_ii_0_1" x="447.304" y="8.14498" width="4.48818" height="5.30966" filterUnits="userSpaceOnUse" color-interpolation-filters="sRGB">
<feFlood flood-opacity="0" result="BackgroundImageFix"/>
<feBlend mode="normal" in="SourceGraphic" in2="BackgroundImageFix" result="shape"/>
<feColorMatrix in="SourceAlpha" type="matrix" values="0 0 0 0 0 0 0 0 0 0 0 0 0 0 0 0 0 0 127 0" result="hardAlpha"/>
<feOffset dx="0.628461" dy="-0.628461"/>
<feGaussianBlur stdDeviation="1.25692"/>
<feComposite in2="hardAlpha" operator="arithmetic" k2="-1" k3="1"/>
<feColorMatrix type="matrix" values="0 0 0 0 1 0 0 0 0 0.227778 0 0 0 0 0.227778 0 0 0 0.3 0"/>
<feBlend mode="normal" in2="shape" result="effect1_innerShadow_0_1"/>
<feColorMatrix in="SourceAlpha" type="matrix" values="0 0 0 0 0 0 0 0 0 0 0 0 0 0 0 0 0 0 127 0" result="hardAlpha"/>
<feOffset dx="-0.0628461" dy="0.628461"/>
<feGaussianBlur stdDeviation="0.628461"/>
<feComposite in2="hardAlpha" operator="arithmetic" k2="-1" k3="1"/>
<feColorMatrix type="matrix" values="0 0 0 0 1 0 0 0 0 0.706944 0 0 0 0 0.706944 0 0 0 0.8 0"/>
<feBlend mode="normal" in2="effect1_innerShadow_0_1" result="effect2_innerShadow_0_1"/>
</filter>
<filter id="filter24_ii_0_1" x="439.148" y="4.63912" width="4.1874" height="5.37411" filterUnits="userSpaceOnUse" color-interpolation-filters="sRGB">
<feFlood flood-opacity="0" result="BackgroundImageFix"/>
<feBlend mode="normal" in="SourceGraphic" in2="BackgroundImageFix" result="shape"/>
<feColorMatrix in="SourceAlpha" type="matrix" values="0 0 0 0 0 0 0 0 0 0 0 0 0 0 0 0 0 0 127 0" result="hardAlpha"/>
<feOffset dx="0.628461" dy="-0.628461"/>
<feGaussianBlur stdDeviation="1.25692"/>
<feComposite in2="hardAlpha" operator="arithmetic" k2="-1" k3="1"/>
<feColorMatrix type="matrix" values="0 0 0 0 1 0 0 0 0 0.485185 0 0 0 0 0.227778 0 0 0 0.3 0"/>
<feBlend mode="normal" in2="shape" result="effect1_innerShadow_0_1"/>
<feColorMatrix in="SourceAlpha" type="matrix" values="0 0 0 0 0 0 0 0 0 0 0 0 0 0 0 0 0 0 127 0" result="hardAlpha"/>
<feOffset dx="-0.0628461" dy="0.628461"/>
<feGaussianBlur stdDeviation="0.628461"/>
<feComposite in2="hardAlpha" operator="arithmetic" k2="-1" k3="1"/>
<feColorMatrix type="matrix" values="0 0 0 0 1 0 0 0 0 0.843704 0 0 0 0 0.706944 0 0 0 0.8 0"/>
<feBlend mode="normal" in2="effect1_innerShadow_0_1" result="effect2_innerShadow_0_1"/>
</filter>
<filter id="filter25_ii_0_1" x="432.468" y="39.5434" width="4.48818" height="5.30966" filterUnits="userSpaceOnUse" color-interpolation-filters="sRGB">
<feFlood flood-opacity="0" result="BackgroundImageFix"/>
<feBlend mode="normal" in="SourceGraphic" in2="BackgroundImageFix" result="shape"/>
<feColorMatrix in="SourceAlpha" type="matrix" values="0 0 0 0 0 0 0 0 0 0 0 0 0 0 0 0 0 0 127 0" result="hardAlpha"/>
<feOffset dx="0.628461" dy="-0.628461"/>
<feGaussianBlur stdDeviation="1.25692"/>
<feComposite in2="hardAlpha" operator="arithmetic" k2="-1" k3="1"/>
<feColorMatrix type="matrix" values="0 0 0 0 0.3181 0 0 0 0 0.532702 0 0 0 0 0.99579 0 0 0 0.3 0"/>
<feBlend mode="normal" in2="shape" result="effect1_innerShadow_0_1"/>
<feColorMatrix in="SourceAlpha" type="matrix" values="0 0 0 0 0 0 0 0 0 0 0 0 0 0 0 0 0 0 127 0" result="hardAlpha"/>
<feOffset dx="-0.0628461" dy="0.628461"/>
<feGaussianBlur stdDeviation="0.628461"/>
<feComposite in2="hardAlpha" operator="arithmetic" k2="-1" k3="1"/>
<feColorMatrix type="matrix" values="0 0 0 0 0.736111 0 0 0 0 0.83287 0 0 0 0 1 0 0 0 0.8 0"/>
<feBlend mode="normal" in2="effect1_innerShadow_0_1" result="effect2_innerShadow_0_1"/>
</filter>
<filter id="filter26_ii_0_1" x="465.879" y="34.0063" width="4.37099" height="5.35067" filterUnits="userSpaceOnUse" color-interpolation-filters="sRGB">
<feFlood flood-opacity="0" result="BackgroundImageFix"/>
<feBlend mode="normal" in="SourceGraphic" in2="BackgroundImageFix" result="shape"/>
<feColorMatrix in="SourceAlpha" type="matrix" values="0 0 0 0 0 0 0 0 0 0 0 0 0 0 0 0 0 0 127 0" result="hardAlpha"/>
<feOffset dx="0.628461" dy="-0.628461"/>
<feGaussianBlur stdDeviation="1.25692"/>
<feComposite in2="hardAlpha" operator="arithmetic" k2="-1" k3="1"/>
<feColorMatrix type="matrix" values="0 0 0 0 0.10697 0 0 0 0 0.487457 0 0 0 0 0.32892 0 0 0 0.3 0"/>
<feBlend mode="normal" in2="shape" result="effect1_innerShadow_0_1"/>
<feColorMatrix in="SourceAlpha" type="matrix" values="0 0 0 0 0 0 0 0 0 0 0 0 0 0 0 0 0 0 127 0" result="hardAlpha"/>
<feOffset dx="-0.0628461" dy="0.628461"/>
<feGaussianBlur stdDeviation="0.628461"/>
<feComposite in2="hardAlpha" operator="arithmetic" k2="-1" k3="1"/>
<feColorMatrix type="matrix" values="0 0 0 0 0.751389 0 0 0 0 1 0 0 0 0 0.937847 0 0 0 0.8 0"/>
<feBlend mode="normal" in2="effect1_innerShadow_0_1" result="effect2_innerShadow_0_1"/>
</filter>
<linearGradient id="paint0_linear_0_1" x1="249" y1="118" x2="249" y2="304" gradientUnits="userSpaceOnUse">
<stop stop-color="#DFDAFF"/>
<stop offset="0.85" stop-color="#DFDAFF" stop-opacity="0.2"/>
</linearGradient>
<clipPath id="clip0_0_1">
<rect x="136" y="118" width="226" height="186" rx="8" fill="white"/>
</clipPath>
</defs>
</svg>
